<mxfile host="app.diagrams.net" modified="2023-05-29T08:52:35.008Z" agent="Mozilla/5.0 (X11; Linux x86_64) AppleWebKit/537.36 (KHTML, like Gecko) Chrome/112.0.0.0 Safari/537.36" version="21.3.5" etag="6QJML9NPnxNUF1Vzmps6" type="github">
  <diagram name="Page-1" id="qjXoniVtTJT4yJA_XcZP">
    <mxGraphModel>
      <root>
        <mxCell id="0" />
        <mxCell id="1" parent="0" />
      </root>
    </mxGraphModel>
  </diagram>
</mxfile>
